<mxfile host="app.diagrams.net" agent="Mozilla/5.0 (Windows NT 10.0; Win64; x64) AppleWebKit/537.36 (KHTML, like Gecko) Chrome/138.0.0.0 Safari/537.36" version="28.0.7" pages="2">
  <diagram name="Page-1" id="jBbVgrvIFhoohORSaG6I">
    <mxGraphModel dx="1026" dy="1687" grid="1" gridSize="10" guides="1" tooltips="1" connect="1" arrows="1" fold="1" page="1" pageScale="1" pageWidth="850" pageHeight="1100" math="0" shadow="0">
      <root>
        <mxCell id="0" />
        <mxCell id="1" parent="0" />
        <mxCell id="uM-Zr8eLrL0PyYPoBgrL-4" value="&lt;font style=&quot;font-size: 20px;&quot;&gt;STUDENT INFORMATION SYSTEM&lt;/font&gt;" style="rounded=0;whiteSpace=wrap;html=1;fillColor=#f8cecc;gradientColor=#ea6b66;strokeColor=#b85450;" vertex="1" parent="1">
          <mxGeometry x="152.5" y="-10" width="380" height="50" as="geometry" />
        </mxCell>
        <mxCell id="uM-Zr8eLrL0PyYPoBgrL-28" value="" style="edgeStyle=orthogonalEdgeStyle;rounded=0;orthogonalLoop=1;jettySize=auto;html=1;" edge="1" parent="1" source="uM-Zr8eLrL0PyYPoBgrL-5" target="uM-Zr8eLrL0PyYPoBgrL-8">
          <mxGeometry relative="1" as="geometry" />
        </mxCell>
        <mxCell id="uM-Zr8eLrL0PyYPoBgrL-5" value="&lt;font style=&quot;font-size: 21px;&quot;&gt;Admin&lt;/font&gt;" style="rounded=0;whiteSpace=wrap;html=1;fillColor=#e6d0de;gradientColor=#d5739d;strokeColor=#996185;" vertex="1" parent="1">
          <mxGeometry x="26.25" y="100" width="140" height="57.5" as="geometry" />
        </mxCell>
        <mxCell id="uM-Zr8eLrL0PyYPoBgrL-27" value="" style="edgeStyle=orthogonalEdgeStyle;rounded=0;orthogonalLoop=1;jettySize=auto;html=1;" edge="1" parent="1" source="uM-Zr8eLrL0PyYPoBgrL-6" target="uM-Zr8eLrL0PyYPoBgrL-7">
          <mxGeometry relative="1" as="geometry" />
        </mxCell>
        <mxCell id="uM-Zr8eLrL0PyYPoBgrL-6" value="&lt;font style=&quot;font-size: 18px;&quot;&gt;Forget&amp;nbsp;&lt;/font&gt;&lt;div&gt;&lt;font style=&quot;font-size: 18px;&quot;&gt;Password&lt;/font&gt;&lt;/div&gt;" style="ellipse;whiteSpace=wrap;html=1;aspect=fixed;fillColor=#fff2cc;strokeColor=#d6b656;gradientColor=#ffd966;" vertex="1" parent="1">
          <mxGeometry x="40" y="327.5" width="112.5" height="112.5" as="geometry" />
        </mxCell>
        <mxCell id="uM-Zr8eLrL0PyYPoBgrL-7" value="&lt;font style=&quot;font-size: 19px;&quot;&gt;Send Email&amp;nbsp;&lt;/font&gt;&lt;div&gt;&lt;font style=&quot;font-size: 19px;&quot;&gt;to User&lt;/font&gt;&lt;/div&gt;" style="ellipse;whiteSpace=wrap;html=1;aspect=fixed;fillColor=#fff2cc;gradientColor=#ffd966;strokeColor=#d6b656;" vertex="1" parent="1">
          <mxGeometry x="36.25" y="530" width="120" height="120" as="geometry" />
        </mxCell>
        <mxCell id="uM-Zr8eLrL0PyYPoBgrL-8" value="&lt;font style=&quot;font-size: 20px;&quot;&gt;Login to&lt;/font&gt;&lt;div&gt;&lt;font style=&quot;font-size: 20px;&quot;&gt;System&lt;/font&gt;&lt;/div&gt;" style="ellipse;whiteSpace=wrap;html=1;aspect=fixed;fillColor=#d5e8d4;gradientColor=#97d077;strokeColor=#82b366;" vertex="1" parent="1">
          <mxGeometry x="300" y="83.75" width="90" height="90" as="geometry" />
        </mxCell>
        <mxCell id="uM-Zr8eLrL0PyYPoBgrL-9" value="&lt;font style=&quot;font-size: 19px;&quot;&gt;Check Credentials&lt;/font&gt;" style="ellipse;whiteSpace=wrap;html=1;aspect=fixed;fillColor=#d5e8d4;gradientColor=#97d077;strokeColor=#82b366;" vertex="1" parent="1">
          <mxGeometry x="270" y="307.5" width="102.5" height="102.5" as="geometry" />
        </mxCell>
        <mxCell id="uM-Zr8eLrL0PyYPoBgrL-10" value="&lt;font style=&quot;font-size: 19px;&quot;&gt;Check Roles&lt;/font&gt;&lt;div&gt;&lt;font style=&quot;font-size: 19px;&quot;&gt;of Access&lt;/font&gt;&lt;/div&gt;" style="ellipse;whiteSpace=wrap;html=1;aspect=fixed;fillColor=#d5e8d4;gradientColor=#97d077;strokeColor=#82b366;" vertex="1" parent="1">
          <mxGeometry x="460" y="82.5" width="100" height="100" as="geometry" />
        </mxCell>
        <mxCell id="uM-Zr8eLrL0PyYPoBgrL-11" value="&lt;font style=&quot;font-size: 21px;&quot;&gt;Manage Modules&lt;/font&gt;" style="ellipse;whiteSpace=wrap;html=1;aspect=fixed;fillColor=#d5e8d4;gradientColor=#97d077;strokeColor=#82b366;" vertex="1" parent="1">
          <mxGeometry x="430" y="310" width="110" height="110" as="geometry" />
        </mxCell>
        <mxCell id="uM-Zr8eLrL0PyYPoBgrL-12" value="&lt;font style=&quot;font-size: 16px;&quot;&gt;Manage Timetable Details&lt;/font&gt;" style="rounded=0;whiteSpace=wrap;html=1;fillColor=#ffcd28;gradientColor=#ffa500;strokeColor=#d79b00;" vertex="1" parent="1">
          <mxGeometry x="600" y="115" width="190" height="45" as="geometry" />
        </mxCell>
        <mxCell id="uM-Zr8eLrL0PyYPoBgrL-14" style="edgeStyle=orthogonalEdgeStyle;rounded=0;orthogonalLoop=1;jettySize=auto;html=1;exitX=0;exitY=0.5;exitDx=0;exitDy=0;" edge="1" parent="1" source="uM-Zr8eLrL0PyYPoBgrL-13">
          <mxGeometry relative="1" as="geometry">
            <mxPoint x="610" y="219.63636363636363" as="targetPoint" />
          </mxGeometry>
        </mxCell>
        <mxCell id="uM-Zr8eLrL0PyYPoBgrL-13" value="&lt;font style=&quot;font-size: 16px;&quot;&gt;Manage Attendance Details&lt;/font&gt;" style="rounded=0;whiteSpace=wrap;html=1;fillColor=#ffcd28;gradientColor=#ffa500;strokeColor=#d79b00;" vertex="1" parent="1">
          <mxGeometry x="600" y="190" width="195" height="40" as="geometry" />
        </mxCell>
        <mxCell id="uM-Zr8eLrL0PyYPoBgrL-15" value="&lt;font style=&quot;font-size: 19px;&quot;&gt;Manage Class Details&lt;/font&gt;" style="rounded=0;whiteSpace=wrap;html=1;fillColor=#ffcd28;gradientColor=#ffa500;strokeColor=#d79b00;" vertex="1" parent="1">
          <mxGeometry x="600" y="260" width="200" height="40" as="geometry" />
        </mxCell>
        <mxCell id="uM-Zr8eLrL0PyYPoBgrL-16" value="&lt;font style=&quot;font-size: 18px;&quot;&gt;Manage Student Details&lt;/font&gt;" style="rounded=0;whiteSpace=wrap;html=1;fillColor=#ffcd28;gradientColor=#ffa500;strokeColor=#d79b00;" vertex="1" parent="1">
          <mxGeometry x="600" y="330" width="200" height="40" as="geometry" />
        </mxCell>
        <mxCell id="uM-Zr8eLrL0PyYPoBgrL-17" value="&lt;font style=&quot;font-size: 19px;&quot;&gt;Manage Fees Details&lt;/font&gt;" style="rounded=0;whiteSpace=wrap;html=1;fillColor=#ffcd28;gradientColor=#ffa500;strokeColor=#d79b00;" vertex="1" parent="1">
          <mxGeometry x="600" y="400" width="200" height="40" as="geometry" />
        </mxCell>
        <mxCell id="uM-Zr8eLrL0PyYPoBgrL-19" value="&lt;font style=&quot;font-size: 17px;&quot;&gt;Manage Teacher Profiles&lt;/font&gt;" style="rounded=0;whiteSpace=wrap;html=1;fillColor=#ffcd28;gradientColor=#ffa500;strokeColor=#d79b00;" vertex="1" parent="1">
          <mxGeometry x="600" y="480" width="200" height="40" as="geometry" />
        </mxCell>
        <mxCell id="uM-Zr8eLrL0PyYPoBgrL-20" value="&lt;font style=&quot;font-size: 21px;&quot;&gt;Manage report&lt;/font&gt;" style="rounded=0;whiteSpace=wrap;html=1;fillColor=#ffcd28;gradientColor=#ffa500;strokeColor=#d79b00;" vertex="1" parent="1">
          <mxGeometry x="600" y="560" width="200" height="40" as="geometry" />
        </mxCell>
        <mxCell id="uM-Zr8eLrL0PyYPoBgrL-21" value="&lt;font style=&quot;font-size: 20px;&quot;&gt;Manage System Admins&lt;/font&gt;" style="rounded=0;whiteSpace=wrap;html=1;fillColor=#e51400;fontColor=#ffffff;strokeColor=#B20000;" vertex="1" parent="1">
          <mxGeometry x="70" y="710" width="170" height="60" as="geometry" />
        </mxCell>
        <mxCell id="uM-Zr8eLrL0PyYPoBgrL-22" value="&lt;font style=&quot;font-size: 18px;&quot;&gt;Manage Roles of User&lt;/font&gt;" style="rounded=0;whiteSpace=wrap;html=1;fillColor=#e51400;fontColor=#ffffff;strokeColor=#B20000;" vertex="1" parent="1">
          <mxGeometry x="290" y="710" width="160" height="60" as="geometry" />
        </mxCell>
        <mxCell id="uM-Zr8eLrL0PyYPoBgrL-23" value="&lt;font style=&quot;font-size: 20px;&quot;&gt;Manage User Permission&lt;/font&gt;" style="rounded=0;whiteSpace=wrap;html=1;fillColor=#e51400;fontColor=#ffffff;strokeColor=#B20000;" vertex="1" parent="1">
          <mxGeometry x="490" y="710" width="170" height="60" as="geometry" />
        </mxCell>
        <mxCell id="uM-Zr8eLrL0PyYPoBgrL-38" value="" style="endArrow=classic;html=1;rounded=0;entryX=0.5;entryY=0;entryDx=0;entryDy=0;" edge="1" parent="1">
          <mxGeometry width="50" height="50" relative="1" as="geometry">
            <mxPoint x="320" y="300" as="sourcePoint" />
            <mxPoint x="320.25" y="307.5" as="targetPoint" />
            <Array as="points">
              <mxPoint x="329" y="180" />
            </Array>
          </mxGeometry>
        </mxCell>
        <mxCell id="uM-Zr8eLrL0PyYPoBgrL-39" value="" style="endArrow=classic;html=1;rounded=0;" edge="1" parent="1" target="uM-Zr8eLrL0PyYPoBgrL-11">
          <mxGeometry width="50" height="50" relative="1" as="geometry">
            <mxPoint x="490" y="300" as="sourcePoint" />
            <mxPoint x="450" y="350" as="targetPoint" />
            <Array as="points">
              <mxPoint x="500" y="180" />
            </Array>
          </mxGeometry>
        </mxCell>
        <mxCell id="uM-Zr8eLrL0PyYPoBgrL-43" value="" style="endArrow=classic;html=1;rounded=0;exitX=1;exitY=0;exitDx=0;exitDy=0;" edge="1" parent="1" source="uM-Zr8eLrL0PyYPoBgrL-9">
          <mxGeometry width="50" height="50" relative="1" as="geometry">
            <mxPoint x="430" y="220" as="sourcePoint" />
            <mxPoint x="480" y="170" as="targetPoint" />
          </mxGeometry>
        </mxCell>
        <mxCell id="uM-Zr8eLrL0PyYPoBgrL-46" value="" style="endArrow=classic;html=1;rounded=0;exitX=0.688;exitY=0.025;exitDx=0;exitDy=0;exitPerimeter=0;" edge="1" parent="1" source="uM-Zr8eLrL0PyYPoBgrL-11">
          <mxGeometry width="50" height="50" relative="1" as="geometry">
            <mxPoint x="520" y="300" as="sourcePoint" />
            <mxPoint x="600" y="140" as="targetPoint" />
          </mxGeometry>
        </mxCell>
        <mxCell id="uM-Zr8eLrL0PyYPoBgrL-48" value="" style="endArrow=classic;html=1;rounded=0;entryX=0;entryY=0.75;entryDx=0;entryDy=0;" edge="1" parent="1" source="uM-Zr8eLrL0PyYPoBgrL-11" target="uM-Zr8eLrL0PyYPoBgrL-13">
          <mxGeometry width="50" height="50" relative="1" as="geometry">
            <mxPoint x="400" y="310" as="sourcePoint" />
            <mxPoint x="450" y="260" as="targetPoint" />
            <Array as="points">
              <mxPoint x="600" y="210" />
            </Array>
          </mxGeometry>
        </mxCell>
        <mxCell id="uM-Zr8eLrL0PyYPoBgrL-49" value="" style="endArrow=classic;html=1;rounded=0;" edge="1" parent="1" source="uM-Zr8eLrL0PyYPoBgrL-11">
          <mxGeometry width="50" height="50" relative="1" as="geometry">
            <mxPoint x="400" y="310" as="sourcePoint" />
            <mxPoint x="590" y="290" as="targetPoint" />
            <Array as="points">
              <mxPoint x="600" y="280" />
            </Array>
          </mxGeometry>
        </mxCell>
        <mxCell id="uM-Zr8eLrL0PyYPoBgrL-50" value="" style="endArrow=classic;html=1;rounded=0;exitX=0;exitY=0.75;exitDx=0;exitDy=0;" edge="1" parent="1" source="uM-Zr8eLrL0PyYPoBgrL-16">
          <mxGeometry width="50" height="50" relative="1" as="geometry">
            <mxPoint x="420" y="330" as="sourcePoint" />
            <mxPoint x="600" y="360" as="targetPoint" />
            <Array as="points">
              <mxPoint x="540" y="360" />
            </Array>
          </mxGeometry>
        </mxCell>
        <mxCell id="uM-Zr8eLrL0PyYPoBgrL-51" value="" style="endArrow=classic;html=1;rounded=0;exitX=1;exitY=1;exitDx=0;exitDy=0;" edge="1" parent="1" source="uM-Zr8eLrL0PyYPoBgrL-11">
          <mxGeometry width="50" height="50" relative="1" as="geometry">
            <mxPoint x="410" y="370" as="sourcePoint" />
            <mxPoint x="600" y="420" as="targetPoint" />
            <Array as="points">
              <mxPoint x="600" y="420" />
            </Array>
          </mxGeometry>
        </mxCell>
        <mxCell id="uM-Zr8eLrL0PyYPoBgrL-52" value="" style="endArrow=classic;html=1;rounded=0;exitX=0.625;exitY=0.988;exitDx=0;exitDy=0;exitPerimeter=0;" edge="1" parent="1" source="uM-Zr8eLrL0PyYPoBgrL-11">
          <mxGeometry width="50" height="50" relative="1" as="geometry">
            <mxPoint x="490" y="400" as="sourcePoint" />
            <mxPoint x="600" y="500" as="targetPoint" />
            <Array as="points">
              <mxPoint x="600" y="500" />
            </Array>
          </mxGeometry>
        </mxCell>
        <mxCell id="uM-Zr8eLrL0PyYPoBgrL-53" value="" style="endArrow=classic;html=1;rounded=0;exitX=0.35;exitY=0.988;exitDx=0;exitDy=0;exitPerimeter=0;" edge="1" parent="1" source="uM-Zr8eLrL0PyYPoBgrL-11">
          <mxGeometry width="50" height="50" relative="1" as="geometry">
            <mxPoint x="420" y="500" as="sourcePoint" />
            <mxPoint x="600" y="580" as="targetPoint" />
          </mxGeometry>
        </mxCell>
        <mxCell id="uM-Zr8eLrL0PyYPoBgrL-55" value="" style="endArrow=classic;html=1;rounded=0;entryX=0.5;entryY=0;entryDx=0;entryDy=0;" edge="1" parent="1" target="uM-Zr8eLrL0PyYPoBgrL-6">
          <mxGeometry width="50" height="50" relative="1" as="geometry">
            <mxPoint x="95" y="160" as="sourcePoint" />
            <mxPoint x="255" y="240" as="targetPoint" />
          </mxGeometry>
        </mxCell>
        <mxCell id="uM-Zr8eLrL0PyYPoBgrL-57" value="" style="endArrow=classic;html=1;rounded=0;entryX=0.304;entryY=0.05;entryDx=0;entryDy=0;entryPerimeter=0;exitX=0;exitY=1;exitDx=0;exitDy=0;" edge="1" parent="1" source="uM-Zr8eLrL0PyYPoBgrL-11" target="uM-Zr8eLrL0PyYPoBgrL-23">
          <mxGeometry width="50" height="50" relative="1" as="geometry">
            <mxPoint x="420" y="510" as="sourcePoint" />
            <mxPoint x="470" y="460" as="targetPoint" />
          </mxGeometry>
        </mxCell>
        <mxCell id="uM-Zr8eLrL0PyYPoBgrL-58" value="" style="endArrow=classic;html=1;rounded=0;exitX=0;exitY=0.636;exitDx=0;exitDy=0;exitPerimeter=0;" edge="1" parent="1" source="uM-Zr8eLrL0PyYPoBgrL-11" target="uM-Zr8eLrL0PyYPoBgrL-22">
          <mxGeometry width="50" height="50" relative="1" as="geometry">
            <mxPoint x="240" y="480" as="sourcePoint" />
            <mxPoint x="290" y="430" as="targetPoint" />
          </mxGeometry>
        </mxCell>
        <mxCell id="uM-Zr8eLrL0PyYPoBgrL-59" value="" style="endArrow=classic;html=1;rounded=0;entryX=0.588;entryY=0;entryDx=0;entryDy=0;entryPerimeter=0;exitX=-0.028;exitY=0.434;exitDx=0;exitDy=0;exitPerimeter=0;" edge="1" parent="1" source="uM-Zr8eLrL0PyYPoBgrL-11" target="uM-Zr8eLrL0PyYPoBgrL-21">
          <mxGeometry width="50" height="50" relative="1" as="geometry">
            <mxPoint x="240" y="470" as="sourcePoint" />
            <mxPoint x="290" y="420" as="targetPoint" />
          </mxGeometry>
        </mxCell>
      </root>
    </mxGraphModel>
  </diagram>
  <diagram id="xL-KfNF3Y-P6cwe0dQtQ" name="Page-2">
    <mxGraphModel dx="872" dy="517" grid="0" gridSize="10" guides="1" tooltips="1" connect="1" arrows="1" fold="1" page="0" pageScale="1" pageWidth="850" pageHeight="1100" math="0" shadow="0">
      <root>
        <mxCell id="0" />
        <mxCell id="1" parent="0" />
      </root>
    </mxGraphModel>
  </diagram>
</mxfile>
